<svg xmlns="http://www.w3.org/2000/svg" width="36" height="36"><g transform="translate(0 -1016.362)"><rect width="36" height="36" y="1016.362" fill="#f8b84e" rx="6" ry="6"/><g transform="translate(197 -312.5)"><path d="M-179.5 320.5c-4.136 0-7.5 3.364-7.5 7.5 0 1.722.59 3.303 1.568 4.57a.5.5 0 0 0 .053.086c.02.026.045.049.066.074.09.11.187.213.282.317.153.167.312.326.478.478.102.093.2.189.307.276.096.078.197.149.297.222.117.087.233.174.355.254.095.062.192.117.29.174a7.5 7.5 0 0 0 1.154.555c.084.032.168.065.253.094.175.059.352.11.532.156.085.022.17.045.256.064.18.04.362.07.546.096.083.012.165.028.249.037.262.029.527.046.796.047h.018c.282 0 .558-.019.832-.049.049-.005.096-.017.145-.023.22-.029.437-.064.65-.112.068-.015.134-.035.201-.052.207-.052.411-.11.611-.18a7.454 7.454 0 0 0 .723-.295c.069-.032.138-.063.205-.097.195-.099.384-.206.569-.32.034-.022.069-.041.103-.063.228-.146.446-.302.656-.471.442-.356.84-.761 1.192-1.207l.004-.004a.5.5 0 0 0 .029-.041A7.453 7.453 0 0 0-172 328c0-4.136-3.364-7.5-7.5-7.5zm0 1a6.492 6.492 0 0 1 5.531 9.906 1.607 1.607 0 0 0-.312-.267.5.5 0 0 0-.022-.014 64.607 64.607 0 0 0-2.62-1.387c-.325-.162-.588-.29-.776-.383-.077-.038-.063-.031-.117-.06.387-.41.685-.904.685-1.53v-1.86a2.407 2.407 0 0 0-2.4-2.403.5.5 0 0 0-.354.148c-1.13.194-2.045 1.071-2.045 2.254v1.862c0 .64.317 1.14.719 1.552-.2.1-1.73.858-3.275 1.701-.22.112-.396.254-.543.39a6.492 6.492 0 0 1 5.53-9.908zm-.031 3.002c.783 0 1.4.617 1.4 1.402v1.862c0 .53-.464 1.073-.953 1.293a.5.5 0 0 0-.045.023.5.5 0 0 0-.082.02 1.35 1.35 0 0 1-.32.06c-.1-.01-.185-.022-.28-.05-.001-.002-.003 0-.005 0a.246.246 0 0 1-.069-.022.5.5 0 0 0-.004 0h-.008a4.216 4.216 0 0 1-.088-.032c-.486-.222-.945-.76-.945-1.287v-1.86c0-.787.615-1.403 1.398-1.403v-.006zm.847 5.463v.012l.204.097-.061-.033c.138.092.21.115.4.209.19.094.45.22.77.38.635.319 1.515.771 2.562 1.356.094.06.104.128.163.227-1.229 1.413-2.971 2.283-4.854 2.287l-.02-.002c-.23 0-.458-.013-.683-.04-1.619-.185-3.097-1.004-4.174-2.247.12-.122.203-.23.344-.3a.5.5 0 0 0 .015-.01 114.724 114.724 0 0 1 3.46-1.798l.23-.115c.015.01.03.012.043.016.009 0 .032.013.037.015h.012c.046.017.09.033.13.045h.007c.156.048.345.089.562.096h.014a.5.5 0 0 0 .069-.01.5.5 0 0 0 .06-.012c.19-.02.361-.053.504-.101h.002a.5.5 0 0 0 .086-.04.5.5 0 0 0 .096-.023c.01 0 .014 0 .023-.01z" color="#000" font-family="sans-serif" font-weight="400" opacity=".15" overflow="visible" transform="translate(0 1020.362)" style="line-height:normal;text-indent:0;text-align:start;text-decoration-line:none;text-decoration-style:solid;text-decoration-color:#000;text-transform:none;block-progression:tb;isolation:auto;mix-blend-mode:normal"/><g fill="#2b4255" fill-rule="evenodd" color="#000" font-family="sans-serif" font-weight="400"><path style="line-height:normal;text-indent:0;text-align:start;text-decoration-line:none;text-decoration-style:solid;text-decoration-color:#000;text-transform:none;block-progression:tb;isolation:auto;mix-blend-mode:normal" d="m12.174 1026.482-7.5 6.5.652.76 7.5-6.5zm-6.744 10.623-.86.514 8 12 .86-.514zm21.216-8.097-4.218 4.219.707.706 4.219-4.218zm-3.898 12.458 2.494 1.925.516-.858-2.494-1.925zm-16.703-5.6-.09.993 4.125.375.09-.994z" overflow="visible" transform="translate(-195.5 311)"/><path style="line-height:normal;text-indent:0;text-align:start;text-decoration-line:none;text-decoration-style:solid;text-decoration-color:#000;text-transform:none;block-progression:tb;isolation:auto;mix-blend-mode:normal" d="m26.842 1043.789-14.5 4.6.316.947 14.5-4.6zm-8.77-19.521-.144.99 9 1.1.144-.99zm10.43 4.056-1.6 14.7.996.076 1.6-14.7z" overflow="visible" transform="translate(-195.5 311)"/></g><circle cx="-180.5" cy="1336.362" r="3.5" fill="#2b4255" color="#000" overflow="visible" style="isolation:auto;mix-blend-mode:normal"/><circle style="isolation:auto;mix-blend-mode:normal" cx="-191.5" cy="1346.362" r="2.5" fill="#2b4255" color="#000" overflow="visible"/><circle style="isolation:auto;mix-blend-mode:normal" cx="-183" cy="1359.862" r="2" fill="#2b4255" color="#000" overflow="visible"/><circle style="isolation:auto;mix-blend-mode:normal" cx="-169" cy="1354.862" r="2" fill="#34485c" color="#000" overflow="visible"/><circle cx="-167.5" cy="1338.362" r="2.5" fill="#2b4255" color="#000" overflow="visible" style="isolation:auto;mix-blend-mode:normal"/><g stroke-linejoin="round" transform="translate(27.5 -3.5)"><path fill="#60c5b8" stroke="#25b39e" stroke-linecap="round" d="M-206.03 1347.863a1.896 1.896 0 0 0-1.899 1.903v1.861c0 .783.598 1.452 1.24 1.744.04.016.082.03.123.045a1.605 1.605 0 0 0 .543.113h-.008c-.137 0-.281-.03-.427-.076-.038-.01-.072-.024-.108-.037-.04-.015-.082-.026-.123-.045-.056-.022-.114-.042-.17-.062l-.422.21s-1.841.913-3.476 1.806c-.397.198-.744.64-.744.64 0 .084.01.161.013.243a7 7 0 0 0 5.487 2.653 7 7 0 0 0 5.498-2.681c0-.01.002-.012.002-.018 0 0-.149-.493-.545-.74-2.131-1.191-3.568-1.837-3.717-1.936l-.39-.19c-.083.025-.154.054-.227.08.646-.29 1.25-.962 1.25-1.75v-1.86a1.898 1.898 0 0 0-1.9-1.903zm.48 5.573a1.546 1.546 0 0 1-.45.09c.184-.016.326-.048.45-.09z"/><circle cx="-206" cy="1351.862" r="7" fill="none" stroke="#2b4255" stroke-dashoffset="1.4" style="isolation:auto;mix-blend-mode:normal" stroke-linecap="square" color="#000" overflow="visible"/></g></g></g></svg>